<svg xmlns="http://www.w3.org/2000/svg" viewBox="0 0 431.26 117.29"><defs><style>.cls-1{fill:none;}.cls-2{fill:#13283d;}.cls-3,.cls-6{fill:#fff;}.cls-4{fill:#ffc533;}.cls-5{opacity:0.2;}.cls-6{font-size:72px;font-family:AmericanCaptain, American Captain;letter-spacing:0.01em;}</style></defs><g id="Layer_2" data-name="Layer 2"><g id="Layer_1-2" data-name="Layer 1"><path class="cls-1" d="M77.81,75.09c0,.54,0,1,0,1.54C77.78,76.14,77.8,75.63,77.81,75.09Z"/><path class="cls-1" d="M77.82,73.17c0,.59,0,1.15,0,1.69C77.82,74.32,77.83,73.76,77.82,73.17Z"/><path class="cls-1" d="M77.78,71.08c0,.66,0,1.31,0,1.92C77.82,72.39,77.8,71.74,77.78,71.08Z"/><path class="cls-1" d="M77.66,68.66c0,.7.08,1.38.11,2C77.74,70,77.71,69.36,77.66,68.66Z"/><path class="cls-1" d="M76.5,81.07l-.51.44Z"/><path class="cls-1" d="M77.74,76.92c0,.46,0,.91-.07,1.31C77.7,77.83,77.72,77.38,77.74,76.92Z"/><path class="cls-1" d="M75.55,81.88l-.56.49Z"/><path class="cls-1" d="M77.66,78.43q0,.58-.09,1.08Q77.61,79,77.66,78.43Z"/><path class="cls-1" d="M69.6,64.83l.73-.4Z"/><path class="cls-1" d="M68,65.77l.76-.44Z"/><path class="cls-1" d="M66.23,66.79l.79-.47Z"/><path class="cls-1" d="M71.17,64l.69-.36Z"/><path class="cls-1" d="M77.16,63.58c.11.82.21,1.62.28,2.39C77.37,65.2,77.27,64.4,77.16,63.58Z"/><path class="cls-1" d="M77.45,66c.07.79.14,1.55.19,2.3C77.59,67.54,77.52,66.78,77.45,66Z"/><path class="cls-1" d="M74,62.51l.6-.29Z"/><path class="cls-1" d="M72.65,63.2l.65-.33Z"/><path class="cls-1" d="M64.44,67.91l.78-.49Z"/><path class="cls-1" d="M56.74,101c-.36.42-.72.85-1.07,1.29C56,101.86,56.38,101.43,56.74,101Z"/><path class="cls-1" d="M54.92,103.23l-1,1.27Z"/><path class="cls-1" d="M58.62,98.8l-1.19,1.38Z"/><path class="cls-1" d="M76.86,80.76l.64-.53c0-.2,0-.43.06-.66A1.59,1.59,0,0,1,77,80.64Z"/><path class="cls-1" d="M60.83,96.31c-.54.59-1.08,1.2-1.63,1.82C59.75,97.51,60.29,96.9,60.83,96.31Z"/><path class="cls-1" d="M53.14,105.49c-.33.43-.66.85-1,1.29C52.48,106.34,52.81,105.92,53.14,105.49Z"/><path class="cls-1" d="M65.05,91.81l1-1Z"/><path class="cls-1" d="M62.69,94.28,61,96.16Z"/><path class="cls-1" d="M77.13,63.29c-.1-.68-.2-1.37-.31-2.08-.57.25-1.21.55-1.87.86A1.57,1.57,0,0,1,77.13,63.29Z"/><path class="cls-1" d="M74.49,82.81l-.63.56Z"/><path class="cls-1" d="M73.32,83.86l-.69.63Z"/><path class="cls-1" d="M70.65,86.31l-.8.76Z"/><path class="cls-1" d="M64.39,92.49l-1.14,1.2Z"/><path class="cls-1" d="M69.19,87.7l-.86.83Z"/><path class="cls-1" d="M67.65,89.2l-.92.92Z"/><path class="cls-1" d="M72,85l-.74.68Z"/><path class="cls-1" d="M71.47,43.35l.23.53Z"/><path class="cls-1" d="M72.44,45.61c.12.28.22.55.33.82C72.66,46.16,72.56,45.89,72.44,45.61Z"/><path class="cls-1" d="M68.73,38c.16.27.32.55.47.83C69.05,38.54,68.89,38.26,68.73,38Z"/><path class="cls-1" d="M70.09,40.5l.3.59Z"/><path class="cls-1" d="M73.32,47.87c.11.29.21.59.32.88C73.53,48.46,73.43,48.16,73.32,47.87Z"/><path class="cls-1" d="M62.59,69.12l.78-.52Z"/><path class="cls-1" d="M69.3,55.47l-1,.5Z"/><path class="cls-1" d="M74.1,50.11c.1.3.19.59.29.88C74.29,50.7,74.2,50.41,74.1,50.11Z"/><polygon class="cls-1" points="143.15 31.75 143.15 31.75 143.1 31.8 143.11 31.8 143.15 31.75"/><polygon class="cls-1" points="115.22 13.72 115.21 13.73 115.22 13.73 115.22 13.72"/><path class="cls-1" d="M82.08,87.24A167.6,167.6,0,0,0,64.28,105l1.6.79a1.6,1.6,0,0,1,.07-2,170.56,170.56,0,0,1,15.76-15.6,1.53,1.53,0,0,1,1.55-.27c15.11,5.8,33.76,7.74,55.5,5.77a197.24,197.24,0,0,0,26-4.12,1.43,1.43,0,0,1,.46,0c0-.16,0-.32,0-.48a197.29,197.29,0,0,1-26.83,4.31C116.29,95.34,97.35,93.29,82.08,87.24Z"/><path class="cls-1" d="M122.34,84.38a102.8,102.8,0,0,0-2.81-26.84A87.41,87.41,0,0,0,96.24,15.66a87.51,87.51,0,0,1,23,41.56A101.82,101.82,0,0,1,122,85.69h1A1.54,1.54,0,0,1,122.34,84.38Z"/><path class="cls-1" d="M153.9,82.82a1.53,1.53,0,0,1-.81-1.28c-.36-8.24-2.29-28.09-12.17-47.69a1.54,1.54,0,0,1,.61-2.06c-1.21-1.2-2.47-2.35-3.76-3.46C151.05,51.11,152.66,75.67,152.83,83Z"/><path class="cls-1" d="M144.44,84.26l.16,0c0-.06,0-.13,0-.19S144.5,84.19,144.44,84.26Z"/><path class="cls-1" d="M117.61,15.75l0,0,.49.46C117.9,16,117.76,15.89,117.61,15.75Z"/><path class="cls-1" d="M71.23,54.53l-1.42.68Z"/><path class="cls-1" d="M51.87,77.33c.27-.25.55-.5.83-.73C52.42,76.83,52.14,77.08,51.87,77.33Z"/><path class="cls-1" d="M47.68,81.18l.9-.87Z"/><path class="cls-1" d="M54,75.52l.74-.62Z"/><path class="cls-1" d="M49.77,79.21l.88-.81C50.35,78.66,50.06,78.94,49.77,79.21Z"/><path class="cls-1" d="M60.68,70.42l.75-.51Z"/><path class="cls-1" d="M56.31,73.66l.44-.35Z"/><path class="cls-1" d="M67.65,56.3l-1,.52Z"/><path class="cls-1" d="M58.74,71.81l.51-.36Z"/><path class="cls-1" d="M64.21,58.17l-1,.58Z"/><path class="cls-1" d="M62.39,59.23l-1,.63Z"/><path class="cls-1" d="M66,57.19l-1,.55Z"/><path class="cls-1" d="M58.57,61.61l-1.1.73Z"/><path class="cls-1" d="M56.57,62.94l-1.12.78Z"/><path class="cls-1" d="M54.54,64.37l-1.15.84Z"/><path class="cls-1" d="M60.51,60.38l-1.07.67Z"/><path class="cls-1" d="M72.55,53.93c-.37.16-.76.34-1.15.53C71.79,54.27,72.18,54.09,72.55,53.93Z"/><path class="cls-1" d="M74.1,30.66a.46.46,0,0,0-.07.07c12.64,19.86,12.45,40.93,11.79,49l.81.29a1.57,1.57,0,0,1-.4-1.14C86.8,70,86.41,49.74,74.1,30.66Z"/><path class="cls-1" d="M90.82,21.88Q89.46,20.52,88,19.21h0C89,20.09,89.91,21,90.82,21.88Z"/><path class="cls-1" d="M51.36,66.75l1.11-.86-1.11.86Z"/><path class="cls-1" d="M73.68,53.43l-.67.3L75,52.89c-.12-.43-.26-.87-.4-1.31A1.54,1.54,0,0,1,73.68,53.43Z"/><path class="cls-1" d="M113.3,85.37l.4,0c0-.12,0-.26,0-.39A1.44,1.44,0,0,1,113.3,85.37Z"/><path class="cls-2" d="M112.41,3.75a85.81,85.81,0,0,0-66.48,6.89A87.63,87.63,0,0,0,3.68,63.07,89.12,89.12,0,0,0,2.07,107.5H9.4c-.12-.53-.25-1-.37-1.58-.08-.38-.16-.75-.23-1.13-.19-.9-.36-1.8-.52-2.7l-.11-.7a81.17,81.17,0,0,1,1.46-33c.26-1.05.54-2.12.85-3.18A80.52,80.52,0,0,1,49.3,17a79.41,79.41,0,0,1,25-8.66L75,8.2a78.67,78.67,0,0,1,9.93-.93l-.08-.07,3.18,0,1.85,0h.72l2.53.15,0,.38,0-.38a79.86,79.86,0,0,1,17.09,3.17l-.35-.31,3.89,1.47c.62.22,1.25.45,1.87.69l.23.11a79.27,79.27,0,0,1,15.95,8.31l-.35-.56,5.16,4.06A78.43,78.43,0,0,1,144,30.94L144,31a82.54,82.54,0,0,1,22.75,46.39h0c.12.9.24,1.81.34,2.72l.1,1h0c.18,2.09.29,4.2.32,6.29h0v1.28a81.63,81.63,0,0,1-2.25,18.75h7.29C182.36,62.75,156.44,17.12,112.41,3.75Z"/><path class="cls-2" d="M65.88,105.78l-1.6-.79a167.6,167.6,0,0,1,17.8-17.75c15.27,6.05,34.21,8.1,56.36,6.1A197.29,197.29,0,0,0,165.27,89c0-.1,0-.19,0-.28h0c0-2.58-.13-5.21-.38-7.82-2,.49-5.46,1.28-10,2.09a1.53,1.53,0,0,1-1-.2l-1.07.19c-.17-7.34-1.78-31.9-15.06-54.68-.82-.71-1.64-1.43-2.5-2.11v0a77.2,77.2,0,0,0-17.65-10.49c.15.14.29.29.44.44,23.67,23.17,26.5,57.92,26.83,66.92a1.61,1.61,0,0,1-.29.94c0,.06,0,.13,0,.19l-.16,0a1.58,1.58,0,0,1-.93.48A173.85,173.85,0,0,1,123.91,86a1.56,1.56,0,0,1-.92-.33h-1a101.82,101.82,0,0,0-2.74-28.47,87.51,87.51,0,0,0-23-41.56l-.88-.89q-3.75,2-7.33,4.44,1.43,1.3,2.79,2.67c10.08,10,17,22.51,20.63,37.34a94.88,94.88,0,0,1,2.64,24.87,1.61,1.61,0,0,1-.37.92c0,.13,0,.27,0,.39l-.4,0a1.45,1.45,0,0,1-.9.24,95.49,95.49,0,0,1-25.15-5.13,1.55,1.55,0,0,1-.62-.45l-.81-.29c.66-8.08.85-29.15-11.79-49l-.53.5c-1.86,1.89-3.61,3.85-5.28,5.86l.51.9c.16.27.32.55.47.83.31.56.6,1.12.89,1.68l.3.59c.38.75.74,1.51,1.08,2.26l.23.53c.26.58.51,1.16.74,1.73.12.28.22.55.33.82.19.48.37,1,.55,1.44.11.29.21.59.32.88.16.46.31.91.46,1.36.1.3.19.59.29.88s.11.36.17.54v0c.14.44.28.88.4,1.31L73,53.73l-.46.2c-.37.16-.76.34-1.15.53l-.17.07-1.42.68-.51.26-1,.5-.64.33-1,.52-.7.37-1,.55-.76.43-1,.58-.81.48-1,.63-.84.52-1.07.67-.87.56-1.1.73-.9.6-1.12.78-.91.65-1.15.84-.92.68-1.11.86a95,95,0,0,0-3.82,14.57l.14-.14.9-.87c.4-.38.79-.74,1.19-1.1s.58-.55.88-.81.81-.72,1.22-1.07.55-.5.83-.73L54,75.52l.74-.62c.53-.43,1-.83,1.57-1.24l.44-.35c.67-.52,1.33-1,2-1.5l.51-.36,1.43-1,.75-.51,1.16-.79.78-.52,1.07-.69.78-.49,1-.63.79-.47.93-.55.76-.44.89-.5.73-.4.84-.46.69-.36.79-.41.65-.33.74-.36.6-.29.29-.14h0c.66-.31,1.3-.61,1.87-.86.11.71.21,1.4.31,2.08v0a2.3,2.3,0,0,1,0,.26c.11.82.21,1.62.28,2.39v0c.07.79.14,1.55.19,2.3,0,.12,0,.25,0,.37,0,.7.08,1.38.11,2,0,.13,0,.26,0,.38,0,.66,0,1.31,0,1.92v.17c0,.59,0,1.15,0,1.69v.23c0,.54,0,1,0,1.54,0,.1,0,.19,0,.29,0,.46,0,.91-.07,1.31a1.34,1.34,0,0,0,0,.2q0,.58-.09,1.08v.06h0c0,.23,0,.46-.06.66l-.64.53-.36.31-.51.44-.44.37-.56.49-.5.44-.63.56-.54.49-.69.63L72,85l-.74.68-.64.6-.8.76-.66.63-.86.83-.68.67-.92.92-.68.67-1,1-.66.68-1.14,1.2-.56.59L61,96.16l-.13.15c-.54.59-1.08,1.2-1.63,1.82l-.58.67-1.19,1.38-.69.83c-.36.42-.72.85-1.07,1.29s-.5.62-.75.93l-1,1.27-.76,1c-.33.43-.66.85-1,1.29-.18.23-.36.48-.53.72H69.06c-.88-.41-1.75-.82-2.63-1.26A1.46,1.46,0,0,1,65.88,105.78Z"/><path class="cls-3" d="M140.92,33.85c9.88,19.6,11.81,39.45,12.17,47.69A1.62,1.62,0,0,0,154.93,83c4.5-.81,8-1.6,10-2.09,0-.19,0-.37,0-.56l-.11-1h0l-.21-1.61h0a80.18,80.18,0,0,0-22.07-45l.65-.88h0l-.75.76-.82-.77A1.54,1.54,0,0,0,140.92,33.85Z"/><path class="cls-3" d="M164.8,89.54a197.24,197.24,0,0,1-26,4.12c-21.74,2-40.39,0-55.5-5.77a1.53,1.53,0,0,0-1.55.27A170.56,170.56,0,0,0,66,103.76a1.6,1.6,0,0,0-.07,2,1.46,1.46,0,0,0,.55.46c.88.44,1.75.85,2.63,1.26H163a79.6,79.6,0,0,0,2.29-18A1.43,1.43,0,0,0,164.8,89.54Z"/><path class="cls-3" d="M74.1,30.66C86.41,49.74,86.8,70,86.23,78.89a1.66,1.66,0,0,0,1,1.59,95.49,95.49,0,0,0,25.15,5.13,1.45,1.45,0,0,0,.9-.24,1.44,1.44,0,0,0,.42-.36,1.61,1.61,0,0,0,.37-.92,94.88,94.88,0,0,0-2.64-24.87c-3.63-14.83-10.55-27.31-20.63-37.34C89.91,21,89,20.09,88,19.22A94.64,94.64,0,0,0,74.1,30.66Z"/><path class="cls-4" d="M95.36,14.77l.88.89a87.41,87.41,0,0,1,23.29,41.88,102.8,102.8,0,0,1,2.81,26.84,1.54,1.54,0,0,0,.65,1.3,1.56,1.56,0,0,0,.92.33,173.85,173.85,0,0,0,19.6-1.27,1.58,1.58,0,0,0,.93-.48c.06-.07.1-.14.15-.21a1.61,1.61,0,0,0,.29-.94c-.33-9-3.16-43.75-26.83-66.92l-.49-.46c-.88-.38-1.78-.74-2.68-1.09l.34-.91h0l-.07.08-.3.8c-1.74-.66-3.46-1.25-5.13-1.76-2.27-.69-4.57-1.24-6.9-1.72Q99,12.78,95.36,14.77Z"/><path class="cls-3" d="M53.14,105.49l.76-1,1-1.27c.25-.31.49-.62.75-.93s.71-.87,1.07-1.29l.69-.83,1.19-1.38.58-.67c.55-.62,1.09-1.23,1.63-1.82l.13-.15,1.73-1.88.56-.59,1.14-1.2.66-.68,1-1,.68-.67.92-.92.68-.67.86-.83.66-.63.8-.76.64-.6L72,85l.6-.54.69-.63.54-.49.63-.56.5-.44.56-.49.44-.37.51-.44.36-.31.14-.12a1.59,1.59,0,0,0,.56-1.07h0v-.06q0-.49.09-1.08a1.34,1.34,0,0,1,0-.2c0-.4,0-.85.07-1.31,0-.1,0-.19,0-.29,0-.49,0-1,0-1.54v-.23c0-.54,0-1.1,0-1.69V73c0-.61,0-1.26,0-1.92,0-.12,0-.25,0-.38,0-.66-.06-1.34-.11-2,0-.12,0-.25,0-.37,0-.75-.12-1.51-.19-2.3v0c-.07-.77-.17-1.57-.28-2.39a2.3,2.3,0,0,0,0-.26v0A1.57,1.57,0,0,0,75,62.07h0l-.29.14-.6.29-.74.36-.65.33-.79.41-.69.36-.84.46-.73.4-.89.5-.76.44-.93.55-.79.47-1,.63-.78.49-1.07.69-.78.52-1.16.79-.75.51-1.43,1-.51.36c-.66.48-1.32,1-2,1.5l-.44.35c-.52.41-1,.81-1.57,1.24l-.74.62L52.7,76.6c-.28.23-.56.48-.83.73s-.82.7-1.22,1.07l-.88.81c-.4.36-.79.72-1.19,1.1l-.9.87-.14.14A96.57,96.57,0,0,0,46.4,107.5h5.22c.17-.24.35-.49.53-.72C52.48,106.34,52.81,105.92,53.14,105.49Z"/><path class="cls-4" d="M51.36,66.75l1.11-.86.92-.68,1.15-.84.91-.65,1.12-.78.9-.6,1.1-.73.87-.56,1.07-.67.84-.52,1-.63.81-.48,1-.58.76-.43,1-.55.7-.37,1-.52.64-.33,1-.5.51-.26,1.42-.68.17-.07c.39-.19.78-.37,1.15-.53l.46-.2.67-.3a1.54,1.54,0,0,0,.88-1.85v0c-.06-.18-.12-.36-.17-.54s-.19-.58-.29-.88c-.15-.45-.3-.9-.46-1.36-.11-.29-.21-.59-.32-.88-.18-.48-.36-1-.55-1.44-.11-.27-.21-.54-.33-.82-.23-.57-.48-1.15-.74-1.73l-.23-.53c-.34-.75-.7-1.51-1.08-2.26l-.3-.59c-.29-.56-.58-1.12-.89-1.68-.15-.28-.31-.56-.47-.83l-.51-.9A94.7,94.7,0,0,0,51.36,66.75Z"/><g class="cls-5"><path class="cls-2" d="M56.94,38.6l-.35.21Z"/></g><g class="cls-5"><path class="cls-2" d="M55.29,39.58l-.64.39Z"/></g><g class="cls-5"><path class="cls-2" d="M59.05,37.4l-.53.29Z"/></g><g class="cls-5"><path class="cls-2" d="M48,44.34l-.88.62Z"/></g><g class="cls-5"><path class="cls-2" d="M53.55,40.65l-.72.46Z"/></g><g class="cls-5"><path class="cls-2" d="M51.76,41.8l-.79.52Z"/></g><g class="cls-5"><path class="cls-2" d="M49.9,43c-.28.18-.56.38-.84.57C49.34,43.41,49.62,43.21,49.9,43Z"/></g><g class="cls-5"><path class="cls-2" d="M29.55,60c-.32.33-.65.66-1,1C28.9,60.67,29.23,60.34,29.55,60Z"/></g><g class="cls-5"><path class="cls-2" d="M15.6,77.58l-.67,1Z"/></g><g class="cls-5"><path class="cls-2" d="M17.52,74.69c-.26.37-.53.75-.78,1.13C17,75.44,17.26,75.06,17.52,74.69Z"/></g><g class="cls-5"><path class="cls-2" d="M19.44,72l-.83,1.14Z"/></g><g class="cls-5"><path class="cls-2" d="M21.41,69.37l-.88,1.13Z"/></g><g class="cls-5"><path class="cls-2" d="M64.9,34.34a1.54,1.54,0,0,1,1.91.5c-.23-.36-.45-.72-.69-1.08Z"/></g><g class="cls-5"><path class="cls-2" d="M25.43,64.49l-.94,1.08Z"/></g><g class="cls-5"><path class="cls-2" d="M30.66,58.88c.32-.33.65-.65,1-1C31.31,58.23,31,58.55,30.66,58.88Z"/></g><g class="cls-5"><path class="cls-2" d="M11.5,84.54l-.42.82Z"/></g><g class="cls-5"><path class="cls-2" d="M13.59,80.84c-.13.23-.28.46-.41.69C13.31,81.3,13.46,81.07,13.59,80.84Z"/></g><g class="cls-5"><path class="cls-2" d="M37.9,52.16l-1,.84Z"/></g><g class="cls-5"><path class="cls-2" d="M40,50.42l-1,.8Z"/></g><g class="cls-5"><path class="cls-2" d="M27.48,62.2c-.32.35-.64.69-.95,1C26.84,62.89,27.16,62.55,27.48,62.2Z"/></g><g class="cls-5"><path class="cls-2" d="M46,45.73l-.91.67Z"/></g><g class="cls-5"><path class="cls-2" d="M44,47.21l-.92.71Z"/></g><g class="cls-5"><path class="cls-2" d="M42,48.77l-1,.76Z"/></g><g class="cls-5"><path class="cls-2" d="M35.81,54l-1,.89Z"/></g><g class="cls-5"><path class="cls-2" d="M60.59,36.55l-.57.31Z"/></g><g class="cls-5"><path class="cls-2" d="M33.72,55.9l-1,.93Z"/></g><g class="cls-5"><path class="cls-2" d="M24.25,97.22c-.36.58-.71,1.18-1.06,1.79C23.54,98.4,23.89,97.8,24.25,97.22Z"/></g><g class="cls-5"><path class="cls-2" d="M64.6,18.86A72.9,72.9,0,0,1,74,30.73a.46.46,0,0,1,.07-.07A72.61,72.61,0,0,0,64.6,18.86Z"/></g><g class="cls-5"><path class="cls-2" d="M48.23,69.25c-.45.37-.91.77-1.36,1.16C47.32,70,47.78,69.62,48.23,69.25Z"/></g><g class="cls-5"><path class="cls-2" d="M45.59,83.27l.92-.94Z"/></g><g class="cls-5"><path class="cls-2" d="M50.36,67.52l-1.25,1Z"/></g><g class="cls-5"><path class="cls-2" d="M46.08,71.08l-1.72,1.55Z"/></g><g class="cls-5"><path class="cls-2" d="M34.4,83q-.6.7-1.2,1.44Q33.8,83.71,34.4,83Z"/></g><g class="cls-5"><path class="cls-2" d="M43.92,73c-.72.66-1.44,1.35-2.16,2C42.48,74.38,43.2,73.69,43.92,73Z"/></g><g class="cls-5"><path class="cls-2" d="M38.8,78.09c-.45.48-.9,1-1.35,1.44C37.9,79,38.35,78.57,38.8,78.09Z"/></g><g class="cls-5"><path class="cls-2" d="M36.57,80.51c-.42.47-.84.94-1.25,1.42C35.73,81.45,36.15,81,36.57,80.51Z"/></g><g class="cls-5"><path class="cls-2" d="M36.38,94.16c-.3.4-.6.81-.89,1.22C35.78,95,36.08,94.56,36.38,94.16Z"/></g><g class="cls-5"><path class="cls-2" d="M28.9,105.92c-.24.44-.49.88-.73,1.34C28.41,106.8,28.66,106.36,28.9,105.92Z"/></g><g class="cls-5"><path class="cls-2" d="M34.44,96.89c-.29.42-.58.84-.86,1.27C33.86,97.73,34.15,97.31,34.44,96.89Z"/></g><g class="cls-5"><path class="cls-2" d="M62,35.8l-.57.3Z"/></g><g class="cls-5"><path class="cls-2" d="M32.54,99.76c-.28.43-.55.86-.82,1.3C32,100.62,32.26,100.19,32.54,99.76Z"/></g><g class="cls-5"><path class="cls-2" d="M30.7,102.76l-.79,1.34Z"/></g><g class="cls-5"><path class="cls-2" d="M38.35,91.55l-.9,1.17Z"/></g><g class="cls-5"><path class="cls-2" d="M39.6,77.25c.52-.54,1-1.06,1.56-1.57C40.64,76.19,40.12,76.71,39.6,77.25Z"/></g><g class="cls-5"><path class="cls-2" d="M51.27,66.81l.09-.06h0Z"/></g><g class="cls-5"><path class="cls-2" d="M26.18,94.13c-.36.55-.72,1.12-1.08,1.69C25.46,95.25,25.82,94.68,26.18,94.13Z"/></g><g class="cls-5"><path class="cls-2" d="M63.27,35.14c-.17.1-.35.18-.53.28C62.92,35.32,63.1,35.24,63.27,35.14Z"/></g><g class="cls-5"><path class="cls-2" d="M67.88,36.54c-.17-.3-.36-.59-.55-.89C67.52,36,67.71,36.24,67.88,36.54Z"/></g><g class="cls-5"><path class="cls-2" d="M32.28,85.61c-.39.49-.77,1-1.16,1.49C31.51,86.59,31.89,86.1,32.28,85.61Z"/></g><g class="cls-5"><path class="cls-2" d="M64.45,34.56l-.51.25Z"/></g><g class="cls-5"><path class="cls-2" d="M40.36,89.07l-.92,1.12Z"/></g><g class="cls-5"><path class="cls-2" d="M28.16,91.16c-.37.53-.73,1.07-1.1,1.62C27.43,92.23,27.79,91.69,28.16,91.16Z"/></g><g class="cls-5"><path class="cls-2" d="M42.4,86.71c-.31.34-.62.7-.93,1.06C41.78,87.41,42.09,87.05,42.4,86.71Z"/></g><g class="cls-5"><path class="cls-2" d="M30.2,88.32c-.38.51-.75,1-1.13,1.55C29.45,89.35,29.82,88.83,30.2,88.32Z"/></g><g class="cls-5"><path class="cls-2" d="M22.37,100.44l-1,1.89Z"/></g><g class="cls-5"><path class="cls-2" d="M44.45,84.46l-.93,1Z"/></g><g class="cls-5"><path class="cls-2" d="M20.57,103.8c-.34.67-.68,1.35-1,2C19.89,105.15,20.23,104.47,20.57,103.8Z"/></g><g class="cls-5"><path class="cls-2" d="M23.4,66.88c-.3.37-.61.73-.91,1.11C22.79,67.61,23.1,67.25,23.4,66.88Z"/></g><g class="cls-5"><path class="cls-2" d="M33.93,44.52,32,46.13Z"/></g><g class="cls-5"><path class="cls-2" d="M91.67,9.66,90.5,9.59v0h-.13v0h-.05v0l-.51,0h-.34c.82.67,1.64,1.33,2.42,2A1.57,1.57,0,0,1,91.67,9.66Z"/></g><g class="cls-5"><path class="cls-2" d="M30.47,47.51c-.64.57-1.28,1.16-1.91,1.75C29.19,48.67,29.83,48.08,30.47,47.51Z"/></g><g class="cls-5"><path class="cls-2" d="M44,36.91c-.59.4-1.17.81-1.77,1.24C42.79,37.72,43.38,37.31,44,36.91Z"/></g><g class="cls-5"><path class="cls-2" d="M37.35,41.76c-.62.48-1.23,1-1.85,1.48Z"/></g><g class="cls-5"><path class="cls-2" d="M27,50.74c-.65.62-1.29,1.26-1.94,1.91C25.7,52,26.34,51.36,27,50.74Z"/></g><g class="cls-5"><path class="cls-2" d="M40.71,39.23c-.61.44-1.21.89-1.82,1.35C39.5,40.12,40.1,39.67,40.71,39.23Z"/></g><g class="cls-5"><path class="cls-2" d="M20.09,57.91c-.68.76-1.34,1.55-2,2.34C18.75,59.46,19.41,58.67,20.09,57.91Z"/></g><g class="cls-5"><path class="cls-2" d="M88,19.21a82,82,0,0,0-11.76-8.86l-.15,0A83.45,83.45,0,0,1,88,19.22Z"/></g><g class="cls-5"><path class="cls-2" d="M47.11,34.81,45.4,35.93Z"/></g><g class="cls-5"><path class="cls-2" d="M18.74,107.5h0l.09-.2Z"/></g><g class="cls-5"><path class="cls-2" d="M12.09,68h0c.46-.63.9-1.29,1.36-1.92C13,66.68,12.54,67.34,12.09,68Z"/></g><g class="cls-5"><path class="cls-2" d="M16.72,61.86c-.73.9-1.46,1.85-2.18,2.79C15.26,63.71,16,62.76,16.72,61.86Z"/></g><g class="cls-5"><path class="cls-2" d="M21.56,56.3c.65-.71,1.31-1.42,2-2.1C22.87,54.88,22.21,55.59,21.56,56.3Z"/></g><g class="cls-5"><path class="cls-2" d="M59,27.94l-.1.06,2-1c-.43-.48-.89-1-1.33-1.42A1.58,1.58,0,0,1,59,27.94Z"/></g><g class="cls-5"><path class="cls-2" d="M9.4,88.7h0c.17-.35.33-.71.51-1.06C9.73,88,9.57,88.35,9.4,88.7Z"/></g><g class="cls-5"><path class="cls-2" d="M58.2,24.21l.7.72Z"/></g><g class="cls-5"><path class="cls-2" d="M55.61,29.73l-1.52.84Z"/></g><g class="cls-5"><path class="cls-2" d="M53.14,19.63l.36.29Z"/></g><g class="cls-5"><path class="cls-2" d="M58.07,28.41l-1.47.77Z"/></g><g class="cls-5"><path class="cls-2" d="M55.91,22l.65.61Z"/></g><g class="cls-5"><path class="cls-2" d="M60.92,14.24l-.88.33c.43.37.86.74,1.28,1.12A1.61,1.61,0,0,1,60.92,14.24Z"/></g><g class="cls-5"><path class="cls-2" d="M53,31.23c-.52.3-1,.59-1.57.92Z"/></g><g class="cls-5"><path class="cls-2" d="M50.11,32.92l-1.64,1C49,33.58,49.57,33.25,50.11,32.92Z"/></g><path class="cls-2" d="M11.08,85.36l.42-.82c.55-1,1.11-2,1.68-3,.13-.23.28-.46.41-.69.44-.75.88-1.49,1.34-2.22l.67-1c.38-.59.75-1.18,1.14-1.76.25-.38.52-.76.78-1.13.36-.53.72-1.06,1.09-1.58L19.44,72c.36-.49.72-1,1.09-1.47l.88-1.13c.36-.46.72-.93,1.08-1.38s.61-.74.91-1.11l1.09-1.31.94-1.08c.36-.42.73-.84,1.1-1.24s.63-.7.95-1,.73-.8,1.1-1.19.65-.67,1-1l1.11-1.13c.32-.33.65-.65,1-1l1.11-1.08,1-.93,1.11-1,1-.89,1.11-1,1-.84,1.1-.94,1-.8,1.11-.89,1-.76c.36-.29.73-.57,1.1-.85l.92-.71,1.09-.81.91-.67L47.11,45l.88-.62c.36-.26.72-.5,1.07-.74s.56-.39.84-.57.71-.48,1.07-.71l.79-.52,1.07-.69.72-.46,1.1-.68.64-.39,1.3-.77.35-.21,1.58-.91.53-.29,1-.54.57-.31.84-.45.57-.3.74-.38c.18-.1.36-.18.53-.28l.67-.33.51-.25.44-.22h0l1.22-.58c.24.36.46.72.69,1.08,0,0,0,0,.06.07.16.24.31.49.46.74s.38.59.55.89.23.36.34.55c1.67-2,3.42-4,5.28-5.86l.53-.5A72.9,72.9,0,0,0,64.6,18.86c-1-1-2.07-2.05-3.19-3.06l-.09-.11c-.42-.38-.85-.75-1.28-1.12a77.1,77.1,0,0,0-8.46,3.81c.53.41,1,.83,1.56,1.25l.36.29c.83.69,1.63,1.4,2.41,2.1l.65.61c.56.52,1.1,1.05,1.64,1.58l.7.72.52.52a1.7,1.7,0,0,1,.1.14c.44.47.9.94,1.33,1.42l-2,1-.8.41-1.47.77-1,.55-1.52.84c-.37.2-.76.44-1.14.66l-1.57.92c-.42.24-.85.51-1.27.77s-1.09.66-1.64,1l-1.36.88L45.4,35.93l-1.43,1c-.59.4-1.18.81-1.77,1.24s-1,.71-1.49,1.08-1.21.89-1.82,1.35l-1.54,1.18L35.5,43.24l-1.57,1.28L32,46.13c-.52.46-1.05.91-1.57,1.38s-1.28,1.16-1.91,1.75-1,1-1.57,1.48S25.7,52,25.05,52.65s-1,1-1.53,1.55-1.31,1.39-2,2.1c-.49.53-1,1.06-1.47,1.61-.68.76-1.34,1.55-2,2.34-.45.54-.91,1.06-1.36,1.61-.73.9-1.46,1.85-2.18,2.79-.36.47-.74.93-1.1,1.41s-.9,1.29-1.36,1.92c-.08.32-.17.64-.25,1A79.38,79.38,0,0,0,9.4,88.7c.17-.35.33-.71.51-1.06Q10.48,86.49,11.08,85.36Z"/><g class="cls-5"><path class="cls-2" d="M11.08,85.36l.42-.82c.55-1,1.11-2,1.68-3,.13-.23.28-.46.41-.69.44-.75.88-1.49,1.34-2.22l.67-1c.38-.59.75-1.18,1.14-1.76.25-.38.52-.76.78-1.13.36-.53.72-1.06,1.09-1.58L19.44,72c.36-.49.72-1,1.09-1.47l.88-1.13c.36-.46.72-.93,1.08-1.38s.61-.74.91-1.11l1.09-1.31.94-1.08c.36-.42.73-.84,1.1-1.24s.63-.7.95-1,.73-.8,1.1-1.19.65-.67,1-1l1.11-1.13c.32-.33.65-.65,1-1l1.11-1.08,1-.93,1.11-1,1-.89,1.11-1,1-.84,1.1-.94,1-.8,1.11-.89,1-.76c.36-.29.73-.57,1.1-.85l.92-.71,1.09-.81.91-.67L47.11,45l.88-.62c.36-.26.72-.5,1.07-.74s.56-.39.84-.57.71-.48,1.07-.71l.79-.52,1.07-.69.72-.46,1.1-.68.64-.39,1.3-.77.35-.21,1.58-.91.53-.29,1-.54.57-.31.84-.45.57-.3.74-.38c.18-.1.36-.18.53-.28l.67-.33.51-.25.44-.22h0l1.22-.58c.24.36.46.72.69,1.08,0,0,0,0,.06.07.16.24.31.49.46.74s.38.59.55.89.23.36.34.55c1.67-2,3.42-4,5.28-5.86l.53-.5A72.9,72.9,0,0,0,64.6,18.86c-1-1-2.07-2.05-3.19-3.06l-.09-.11c-.42-.38-.85-.75-1.28-1.12a77.1,77.1,0,0,0-8.46,3.81c.53.41,1,.83,1.56,1.25l.36.29c.83.69,1.63,1.4,2.41,2.1l.65.61c.56.52,1.1,1.05,1.64,1.58l.7.72.52.52a1.7,1.7,0,0,1,.1.14c.44.47.9.94,1.33,1.42l-2,1-.8.41-1.47.77-1,.55-1.52.84c-.37.2-.76.44-1.14.66l-1.57.92c-.42.24-.85.51-1.27.77s-1.09.66-1.64,1l-1.36.88L45.4,35.93l-1.43,1c-.59.4-1.18.81-1.77,1.24s-1,.71-1.49,1.08-1.21.89-1.82,1.35l-1.54,1.18L35.5,43.24l-1.57,1.28L32,46.13c-.52.46-1.05.91-1.57,1.38s-1.28,1.16-1.91,1.75-1,1-1.57,1.48S25.7,52,25.05,52.65s-1,1-1.53,1.55-1.31,1.39-2,2.1c-.49.53-1,1.06-1.47,1.61-.68.76-1.34,1.55-2,2.34-.45.54-.91,1.06-1.36,1.61-.73.9-1.46,1.85-2.18,2.79-.36.47-.74.93-1.1,1.41s-.9,1.29-1.36,1.92c-.08.32-.17.64-.25,1A79.38,79.38,0,0,0,9.4,88.7c.17-.35.33-.71.51-1.06Q10.48,86.49,11.08,85.36Z"/></g><path class="cls-2" d="M28.9,105.92c.34-.61.67-1.23,1-1.82l.79-1.34c.33-.57.67-1.14,1-1.7s.54-.87.82-1.3.69-1.08,1-1.6.57-.85.86-1.27l1.05-1.51c.29-.41.59-.82.89-1.22s.71-1,1.07-1.44l.9-1.17,1.09-1.36.92-1.12c.37-.44.74-.88,1.11-1.3s.62-.72.93-1.06.75-.84,1.12-1.25l.93-1,1.14-1.19.92-.94c.34-.34.68-.68,1-1a95,95,0,0,1,3.82-14.57l-.09.06-.91.71-1.25,1c-.3.24-.59.47-.88.72-.45.37-.91.77-1.36,1.16l-.79.67-1.72,1.55-.44.4c-.72.66-1.44,1.35-2.16,2-.2.19-.4.4-.6.6-.52.51-1,1-1.56,1.57-.27.27-.54.56-.8.84-.45.48-.9,1-1.35,1.44l-.88,1c-.42.47-.84.94-1.25,1.42s-.61.72-.92,1.08-.8.95-1.2,1.44l-.92,1.16c-.39.49-.77,1-1.16,1.49s-.61.81-.92,1.22-.75,1-1.13,1.55l-.91,1.29c-.37.53-.73,1.07-1.1,1.62s-.59.89-.88,1.35-.72,1.12-1.08,1.69l-.85,1.4c-.36.58-.71,1.18-1.06,1.79l-.82,1.43-1,1.89c-.26.49-.52,1-.78,1.47-.34.67-.68,1.35-1,2-.24.49-.48,1-.72,1.47l-.09.2H28c.05-.08.09-.16.13-.24C28.41,106.8,28.66,106.36,28.9,105.92Z"/><g class="cls-5"><path class="cls-2" d="M28.9,105.92c.34-.61.67-1.23,1-1.82l.79-1.34c.33-.57.67-1.14,1-1.7s.54-.87.82-1.3.69-1.08,1-1.6.57-.85.86-1.27l1.05-1.51c.29-.41.59-.82.89-1.22s.71-1,1.07-1.44l.9-1.17,1.09-1.36.92-1.12c.37-.44.74-.88,1.11-1.3s.62-.72.93-1.06.75-.84,1.12-1.25l.93-1,1.14-1.19.92-.94c.34-.34.68-.68,1-1a95,95,0,0,1,3.82-14.57l-.09.06-.91.71-1.25,1c-.3.24-.59.47-.88.72-.45.37-.91.77-1.36,1.16l-.79.67-1.72,1.55-.44.4c-.72.66-1.44,1.35-2.16,2-.2.19-.4.4-.6.6-.52.51-1,1-1.56,1.57-.27.27-.54.56-.8.84-.45.48-.9,1-1.35,1.44l-.88,1c-.42.47-.84.94-1.25,1.42s-.61.72-.92,1.08-.8.95-1.2,1.44l-.92,1.16c-.39.49-.77,1-1.16,1.49s-.61.81-.92,1.22-.75,1-1.13,1.55l-.91,1.29c-.37.53-.73,1.07-1.1,1.62s-.59.89-.88,1.35-.72,1.12-1.08,1.69l-.85,1.4c-.36.58-.71,1.18-1.06,1.79l-.82,1.43-1,1.89c-.26.49-.52,1-.78,1.47-.34.67-.68,1.35-1,2-.24.49-.48,1-.72,1.47l-.09.2H28c.05-.08.09-.16.13-.24C28.41,106.8,28.66,106.36,28.9,105.92Z"/></g><path class="cls-2" d="M95.36,14.77Q93.74,13.21,92,11.69s-.06-.08-.1-.12c-.78-.68-1.6-1.34-2.42-2l-.63,0H88a75.93,75.93,0,0,0-11.75.81A82,82,0,0,1,88,19.21Q91.62,16.81,95.36,14.77Z"/><g class="cls-5"><path class="cls-2" d="M95.36,14.77Q93.74,13.21,92,11.69s-.06-.08-.1-.12c-.78-.68-1.6-1.34-2.42-2l-.63,0H88a75.93,75.93,0,0,0-11.75.81A82,82,0,0,1,88,19.21Q91.62,16.81,95.36,14.77Z"/></g><path class="cls-3" d="M61.32,15.69l.09.11c1.12,1,2.17,2,3.19,3.06a72.61,72.61,0,0,1,9.5,11.8A94.64,94.64,0,0,1,88,19.22a83.45,83.45,0,0,0-11.89-8.85c-.39.06-.78.1-1.17.17l-.41.06a77.09,77.09,0,0,0-13.62,3.64A1.61,1.61,0,0,0,61.32,15.69Z"/><g class="cls-5"><path class="cls-2" d="M61.32,15.69l.09.11c1.12,1,2.17,2,3.19,3.06a72.61,72.61,0,0,1,9.5,11.8A94.64,94.64,0,0,1,88,19.22a83.45,83.45,0,0,0-11.89-8.85c-.39.06-.78.1-1.17.17l-.41.06a77.09,77.09,0,0,0-13.62,3.64A1.61,1.61,0,0,0,61.32,15.69Z"/></g><path class="cls-4" d="M91.89,11.57s.06.09.1.12q1.76,1.51,3.37,3.08,3.66-2,7.45-3.64A75.9,75.9,0,0,0,93,9.74l0-.44,0,.44L93,9.07l-.07.66-1.27-.07A1.57,1.57,0,0,0,91.89,11.57Z"/><g class="cls-5"><path class="cls-2" d="M91.89,11.57s.06.09.1.12q1.76,1.51,3.37,3.08,3.66-2,7.45-3.64A75.9,75.9,0,0,0,93,9.74l0-.44,0,.44L93,9.07l-.07.66-1.27-.07A1.57,1.57,0,0,0,91.89,11.57Z"/></g><path class="cls-3" d="M47.54,81.32c-.35.33-.69.67-1,1l-.92.94-1.14,1.19-.93,1c-.37.41-.75.82-1.12,1.25s-.62.7-.93,1.06-.74.86-1.11,1.3l-.92,1.12-1.09,1.36-.9,1.17c-.36.47-.72,1-1.07,1.44s-.6.81-.89,1.22l-1.05,1.51c-.29.42-.58.84-.86,1.27s-.7,1.06-1,1.6-.55.86-.82,1.3-.69,1.13-1,1.7l-.79,1.34c-.34.59-.67,1.21-1,1.82-.24.44-.49.88-.73,1.34,0,.08-.08.16-.13.24H46.4A96.57,96.57,0,0,1,47.54,81.32Z"/><g class="cls-5"><path class="cls-2" d="M47.54,81.32c-.35.33-.69.67-1,1l-.92.94-1.14,1.19-.93,1c-.37.41-.75.82-1.12,1.25s-.62.7-.93,1.06-.74.86-1.11,1.3l-.92,1.12-1.09,1.36-.9,1.17c-.36.47-.72,1-1.07,1.44s-.6.81-.89,1.22l-1.05,1.51c-.29.42-.58.84-.86,1.27s-.7,1.06-1,1.6-.55.86-.82,1.3-.69,1.13-1,1.7l-.79,1.34c-.34.59-.67,1.21-1,1.82-.24.44-.49.88-.73,1.34,0,.08-.08.16-.13.24H46.4A96.57,96.57,0,0,1,47.54,81.32Z"/></g><path class="cls-3" d="M14.54,64.65c.72-.94,1.45-1.89,2.18-2.79.45-.55.91-1.07,1.36-1.61.67-.79,1.33-1.58,2-2.34.49-.55,1-1.08,1.47-1.61.65-.71,1.31-1.42,2-2.1s1-1,1.53-1.55,1.29-1.29,1.94-1.91,1-1,1.57-1.48,1.27-1.18,1.91-1.75,1.05-.92,1.57-1.38l1.89-1.61,1.57-1.28c.62-.5,1.23-1,1.85-1.48l1.54-1.18c.61-.46,1.21-.91,1.82-1.35s1-.73,1.49-1.08,1.18-.84,1.77-1.24l1.43-1,1.71-1.12,1.36-.88,1.64-1c.42-.26.85-.53,1.27-.77s1-.62,1.57-.92.77-.46,1.14-.66l1.52-.84,1-.55,1.47-.77.8-.41.1-.06a1.58,1.58,0,0,0,.55-2.35,1.7,1.7,0,0,0-.1-.14l-.52-.52-.7-.72c-.54-.53-1.08-1.06-1.64-1.58L55.91,22c-.78-.7-1.58-1.41-2.41-2.1l-.36-.29c-.52-.42-1-.84-1.56-1.25l-1.2.62A78.19,78.19,0,0,0,12.67,65.8c-.22.74-.4,1.45-.58,2.17.45-.63.89-1.29,1.35-1.91S14.18,65.12,14.54,64.65Z"/><g class="cls-5"><path class="cls-2" d="M14.54,64.65c.72-.94,1.45-1.89,2.18-2.79.45-.55.91-1.07,1.36-1.61.67-.79,1.33-1.58,2-2.34.49-.55,1-1.08,1.47-1.61.65-.71,1.31-1.42,2-2.1s1-1,1.53-1.55,1.29-1.29,1.94-1.91,1-1,1.57-1.48,1.27-1.18,1.91-1.75,1.05-.92,1.57-1.38l1.89-1.61,1.57-1.28c.62-.5,1.23-1,1.85-1.48l1.54-1.18c.61-.46,1.21-.91,1.82-1.35s1-.73,1.49-1.08,1.18-.84,1.77-1.24l1.43-1,1.71-1.12,1.36-.88,1.64-1c.42-.26.85-.53,1.27-.77s1-.62,1.57-.92.77-.46,1.14-.66l1.52-.84,1-.55,1.47-.77.8-.41.1-.06a1.58,1.58,0,0,0,.55-2.35,1.7,1.7,0,0,0-.1-.14l-.52-.52-.7-.72c-.54-.53-1.08-1.06-1.64-1.58L55.91,22c-.78-.7-1.58-1.41-2.41-2.1l-.36-.29c-.52-.42-1-.84-1.56-1.25l-1.2.62A78.19,78.19,0,0,0,12.67,65.8c-.22.74-.4,1.45-.58,2.17.45-.63.89-1.29,1.35-1.91S14.18,65.12,14.54,64.65Z"/></g><path class="cls-4" d="M19.56,105.83c.33-.68.67-1.36,1-2,.26-.5.52-1,.78-1.47l1-1.89L23.19,99c.35-.61.7-1.21,1.06-1.79l.85-1.4c.36-.57.72-1.14,1.08-1.69s.59-.91.88-1.35.73-1.09,1.1-1.62l.91-1.29c.38-.52.75-1,1.13-1.55s.61-.82.92-1.22.77-1,1.16-1.49l.92-1.16q.6-.74,1.2-1.44c.31-.36.61-.73.92-1.08s.83-1,1.25-1.42l.88-1c.45-.49.9-1,1.35-1.44.26-.28.53-.57.8-.84.52-.54,1-1.06,1.56-1.57.2-.2.4-.41.6-.6.72-.7,1.44-1.39,2.16-2l.44-.4,1.72-1.55.79-.67c.45-.39.91-.79,1.36-1.16.29-.25.58-.48.88-.72l1.25-1,.91-.71.09-.06A94.7,94.7,0,0,1,68.22,37.09c-.11-.19-.23-.37-.34-.55s-.36-.59-.55-.89-.3-.5-.46-.74c0,0,0,0-.06-.07a1.54,1.54,0,0,0-1.91-.5h0l-.44.22-.51.25-.67.33c-.17.1-.35.18-.53.28L62,35.8l-.57.3-.84.45-.57.31-1,.54-.53.29-1.58.91-.35.21-1.3.77-.64.39-1.1.68-.72.46-1.07.69-.79.52c-.36.23-.71.46-1.07.71s-.56.38-.84.57-.71.48-1.07.74l-.88.62L46,45.73l-.91.67L44,47.21l-.92.71c-.37.28-.74.56-1.1.85l-1,.76L40,50.42l-1,.8-1.1.94-1,.84-1.11,1-1,.89-1.11,1-1,.93-1.11,1.08c-.32.32-.65.64-1,1L29.55,60c-.32.33-.65.66-1,1s-.73.79-1.1,1.19-.64.69-.95,1-.74.82-1.1,1.24l-.94,1.08L23.4,66.88c-.3.37-.61.73-.91,1.11s-.72.92-1.08,1.38l-.88,1.13c-.37.48-.73,1-1.09,1.47l-.83,1.14c-.37.52-.73,1-1.09,1.58-.26.37-.53.75-.78,1.13-.39.58-.76,1.17-1.14,1.76l-.67,1c-.46.73-.9,1.47-1.34,2.22-.13.23-.28.46-.41.69-.57,1-1.13,2-1.68,3l-.42.82q-.6,1.13-1.17,2.28c-.18.35-.34.71-.51,1.06a80,80,0,0,0,1,12.32l.11.68c.15.88.32,1.75.5,2.62.07.37.15.74.23,1.1.15.7.32,1.39.49,2.08h7l.1-.2C19.08,106.8,19.32,106.32,19.56,105.83Z"/><g class="cls-5"><path class="cls-2" d="M19.56,105.83c.33-.68.67-1.36,1-2,.26-.5.52-1,.78-1.47l1-1.89L23.19,99c.35-.61.7-1.21,1.06-1.79l.85-1.4c.36-.57.72-1.14,1.08-1.69s.59-.91.88-1.35.73-1.09,1.1-1.62l.91-1.29c.38-.52.75-1,1.13-1.55s.61-.82.92-1.22.77-1,1.16-1.49l.92-1.16q.6-.74,1.2-1.44c.31-.36.61-.73.92-1.08s.83-1,1.25-1.42l.88-1c.45-.49.9-1,1.35-1.44.26-.28.53-.57.8-.84.52-.54,1-1.06,1.56-1.57.2-.2.4-.41.6-.6.72-.7,1.44-1.39,2.16-2l.44-.4,1.72-1.55.79-.67c.45-.39.91-.79,1.36-1.16.29-.25.58-.48.88-.72l1.25-1,.91-.71.09-.06A94.7,94.7,0,0,1,68.22,37.09c-.11-.19-.23-.37-.34-.55s-.36-.59-.55-.89-.3-.5-.46-.74c0,0,0,0-.06-.07a1.54,1.54,0,0,0-1.91-.5h0l-.44.22-.51.25-.67.33c-.17.1-.35.18-.53.28L62,35.8l-.57.3-.84.45-.57.31-1,.54-.53.29-1.58.91-.35.21-1.3.77-.64.39-1.1.68-.72.46-1.07.69-.79.52c-.36.23-.71.46-1.07.71s-.56.38-.84.57-.71.48-1.07.74l-.88.62L46,45.73l-.91.67L44,47.21l-.92.71c-.37.28-.74.56-1.1.85l-1,.76L40,50.42l-1,.8-1.1.94-1,.84-1.11,1-1,.89-1.11,1-1,.93-1.11,1.08c-.32.32-.65.64-1,1L29.55,60c-.32.33-.65.66-1,1s-.73.79-1.1,1.19-.64.69-.95,1-.74.82-1.1,1.24l-.94,1.08L23.4,66.88c-.3.37-.61.73-.91,1.11s-.72.92-1.08,1.38l-.88,1.13c-.37.48-.73,1-1.09,1.47l-.83,1.14c-.37.52-.73,1-1.09,1.58-.26.37-.53.75-.78,1.13-.39.58-.76,1.17-1.14,1.76l-.67,1c-.46.73-.9,1.47-1.34,2.22-.13.23-.28.46-.41.69-.57,1-1.13,2-1.68,3l-.42.82q-.6,1.13-1.17,2.28c-.18.35-.34.71-.51,1.06a80,80,0,0,0,1,12.32l.11.68c.15.88.32,1.75.5,2.62.07.37.15.74.23,1.1.15.7.32,1.39.49,2.08h7l.1-.2C19.08,106.8,19.32,106.32,19.56,105.83Z"/></g><path class="cls-3" d="M167.54,87.47h0c0-2.09-.14-4.2-.32-6.29h0l-.1-1c-.1-.91-.22-1.82-.34-2.72h0A82.54,82.54,0,0,0,144,31l-.08-.08a78.43,78.43,0,0,0-7.32-6.56l-5.16-4.06.35.56a79.27,79.27,0,0,0-15.95-8.31l-.23-.11c-.62-.24-1.25-.47-1.87-.69l-3.89-1.47.35.31A79.86,79.86,0,0,0,93.14,7.44l0,.38,0-.38L90.6,7.29h-.72L88,7.22l-3.18,0,.08.07A78.67,78.67,0,0,0,75,8.2l-.7.12A79.41,79.41,0,0,0,49.3,17,80.52,80.52,0,0,0,10.48,65.19c-.31,1.06-.59,2.13-.85,3.18a81.17,81.17,0,0,0-1.46,33l.11.7c.16.9.33,1.8.52,2.7.07.38.15.75.23,1.13.12.53.25,1,.37,1.58h2.34c-.17-.69-.34-1.38-.49-2.08-.08-.36-.16-.73-.23-1.1-.18-.87-.35-1.74-.5-2.62l-.11-.68a80,80,0,0,1-1-12.32h0a79.38,79.38,0,0,1,2.43-19.76c.08-.32.17-.64.25-1h0c.18-.72.36-1.43.58-2.17A78.19,78.19,0,0,1,50.38,19l1.2-.62A77.1,77.1,0,0,1,60,14.57l.88-.33A77.09,77.09,0,0,1,74.54,10.6l.41-.06c.39-.07.78-.11,1.17-.17l.15,0A75.93,75.93,0,0,1,88,9.54h.82l.63,0h.34l.51,0v0h.05v0h.13v0l1.17.07,1.27.07L93,9.07,93,9.74l0-.44,0,.44a75.9,75.9,0,0,1,9.84,1.39c2.33.48,4.63,1,6.9,1.72,1.67.51,3.39,1.1,5.13,1.76l.3-.8.07-.08h0l-.34.91c.9.35,1.8.71,2.68,1.09l0,0a77.2,77.2,0,0,1,17.65,10.49v0c.86.68,1.68,1.4,2.5,2.11,1.29,1.11,2.55,2.26,3.76,3.46l.82.77.75-.76.05-.05h0l0,.05-.65.88a80.18,80.18,0,0,1,22.07,45h0l.21,1.61h0l.11,1c0,.19,0,.37,0,.56.25,2.61.39,5.24.38,7.82h0c0,.09,0,.18,0,.28s0,.32,0,.48a79.6,79.6,0,0,1-2.29,18h2.33a81.63,81.63,0,0,0,2.25-18.75Z"/><text class="cls-6" transform="translate(191.24 107.71) scale(1.13 1)">passver</text></g></g></svg>